<svg width="918" height="487" viewBox="0 0 918 487" fill="none" xmlns="http://www.w3.org/2000/svg">
<rect width="918" height="487" rx="25" fill="#16A34A"/>
<rect y="55" width="918" height="84" fill="black"/>
<path d="M26.3409 247.568C24.3106 247.568 22.5606 247.087 21.0909 246.125C19.6212 245.155 18.4886 243.765 17.6932 241.955C16.8977 240.136 16.5038 237.951 16.5114 235.398C16.5189 232.845 16.9167 230.678 17.7045 228.898C18.5 227.11 19.6288 225.75 21.0909 224.818C22.5606 223.879 24.3106 223.409 26.3409 223.409C28.3712 223.409 30.1212 223.879 31.5909 224.818C33.0682 225.75 34.2045 227.11 35 228.898C35.7955 230.686 36.1894 232.852 36.1818 235.398C36.1818 237.958 35.7841 240.148 34.9886 241.966C34.1932 243.784 33.0606 245.174 31.5909 246.136C30.1288 247.091 28.3788 247.568 26.3409 247.568ZM26.3409 242.966C27.553 242.966 28.5341 242.348 29.2841 241.114C30.0341 239.871 30.4053 237.966 30.3977 235.398C30.3977 233.716 30.2273 232.33 29.8864 231.239C29.5455 230.14 29.072 229.322 28.4659 228.784C27.8598 228.246 27.1515 227.977 26.3409 227.977C25.1364 227.977 24.1629 228.587 23.4205 229.807C22.678 231.019 22.303 232.883 22.2955 235.398C22.2879 237.102 22.4508 238.515 22.7841 239.636C23.125 240.758 23.6023 241.595 24.2159 242.148C24.8295 242.693 25.5379 242.966 26.3409 242.966ZM49.0284 247.568C46.9981 247.568 45.2481 247.087 43.7784 246.125C42.3087 245.155 41.1761 243.765 40.3807 241.955C39.5852 240.136 39.1913 237.951 39.1989 235.398C39.2064 232.845 39.6042 230.678 40.392 228.898C41.1875 227.11 42.3163 225.75 43.7784 224.818C45.2481 223.879 46.9981 223.409 49.0284 223.409C51.0587 223.409 52.8087 223.879 54.2784 224.818C55.7557 225.75 56.892 227.11 57.6875 228.898C58.483 230.686 58.8769 232.852 58.8693 235.398C58.8693 237.958 58.4716 240.148 57.6761 241.966C56.8807 243.784 55.7481 245.174 54.2784 246.136C52.8163 247.091 51.0663 247.568 49.0284 247.568ZM49.0284 242.966C50.2405 242.966 51.2216 242.348 51.9716 241.114C52.7216 239.871 53.0928 237.966 53.0852 235.398C53.0852 233.716 52.9148 232.33 52.5739 231.239C52.233 230.14 51.7595 229.322 51.1534 228.784C50.5473 228.246 49.839 227.977 49.0284 227.977C47.8239 227.977 46.8504 228.587 46.108 229.807C45.3655 231.019 44.9905 232.883 44.983 235.398C44.9754 237.102 45.1383 238.515 45.4716 239.636C45.8125 240.758 46.2898 241.595 46.9034 242.148C47.517 242.693 48.2254 242.966 49.0284 242.966ZM71.7159 247.568C69.6856 247.568 67.9356 247.087 66.4659 246.125C64.9962 245.155 63.8636 243.765 63.0682 241.955C62.2727 240.136 61.8788 237.951 61.8864 235.398C61.8939 232.845 62.2917 230.678 63.0795 228.898C63.875 227.11 65.0038 225.75 66.4659 224.818C67.9356 223.879 69.6856 223.409 71.7159 223.409C73.7462 223.409 75.4962 223.879 76.9659 224.818C78.4432 225.75 79.5795 227.11 80.375 228.898C81.1705 230.686 81.5644 232.852 81.5568 235.398C81.5568 237.958 81.1591 240.148 80.3636 241.966C79.5682 243.784 78.4356 245.174 76.9659 246.136C75.5038 247.091 73.7538 247.568 71.7159 247.568ZM71.7159 242.966C72.928 242.966 73.9091 242.348 74.6591 241.114C75.4091 239.871 75.7803 237.966 75.7727 235.398C75.7727 233.716 75.6023 232.33 75.2614 231.239C74.9205 230.14 74.447 229.322 73.8409 228.784C73.2348 228.246 72.5265 227.977 71.7159 227.977C70.5114 227.977 69.5379 228.587 68.7955 229.807C68.053 231.019 67.678 232.883 67.6705 235.398C67.6629 237.102 67.8258 238.515 68.1591 239.636C68.5 240.758 68.9773 241.595 69.5909 242.148C70.2045 242.693 70.9129 242.966 71.7159 242.966ZM94.4034 247.568C92.3731 247.568 90.6231 247.087 89.1534 246.125C87.6837 245.155 86.5511 243.765 85.7557 241.955C84.9602 240.136 84.5663 237.951 84.5739 235.398C84.5814 232.845 84.9792 230.678 85.767 228.898C86.5625 227.11 87.6913 225.75 89.1534 224.818C90.6231 223.879 92.3731 223.409 94.4034 223.409C96.4337 223.409 98.1837 223.879 99.6534 224.818C101.131 225.75 102.267 227.11 103.062 228.898C103.858 230.686 104.252 232.852 104.244 235.398C104.244 237.958 103.847 240.148 103.051 241.966C102.256 243.784 101.123 245.174 99.6534 246.136C98.1913 247.091 96.4413 247.568 94.4034 247.568ZM94.4034 242.966C95.6155 242.966 96.5966 242.348 97.3466 241.114C98.0966 239.871 98.4678 237.966 98.4602 235.398C98.4602 233.716 98.2898 232.33 97.9489 231.239C97.608 230.14 97.1345 229.322 96.5284 228.784C95.9223 228.246 95.214 227.977 94.4034 227.977C93.1989 227.977 92.2254 228.587 91.483 229.807C90.7405 231.019 90.3655 232.883 90.358 235.398C90.3504 237.102 90.5133 238.515 90.8466 239.636C91.1875 240.758 91.6648 241.595 92.2784 242.148C92.892 242.693 93.6004 242.966 94.4034 242.966ZM123.966 247.568C121.936 247.568 120.186 247.087 118.716 246.125C117.246 245.155 116.114 243.765 115.318 241.955C114.523 240.136 114.129 237.951 114.136 235.398C114.144 232.845 114.542 230.678 115.33 228.898C116.125 227.11 117.254 225.75 118.716 224.818C120.186 223.879 121.936 223.409 123.966 223.409C125.996 223.409 127.746 223.879 129.216 224.818C130.693 225.75 131.83 227.11 132.625 228.898C133.42 230.686 133.814 232.852 133.807 235.398C133.807 237.958 133.409 240.148 132.614 241.966C131.818 243.784 130.686 245.174 129.216 246.136C127.754 247.091 126.004 247.568 123.966 247.568ZM123.966 242.966C125.178 242.966 126.159 242.348 126.909 241.114C127.659 239.871 128.03 237.966 128.023 235.398C128.023 233.716 127.852 232.33 127.511 231.239C127.17 230.14 126.697 229.322 126.091 228.784C125.485 228.246 124.777 227.977 123.966 227.977C122.761 227.977 121.788 228.587 121.045 229.807C120.303 231.019 119.928 232.883 119.92 235.398C119.913 237.102 120.076 238.515 120.409 239.636C120.75 240.758 121.227 241.595 121.841 242.148C122.455 242.693 123.163 242.966 123.966 242.966ZM146.653 247.568C144.623 247.568 142.873 247.087 141.403 246.125C139.934 245.155 138.801 243.765 138.006 241.955C137.21 240.136 136.816 237.951 136.824 235.398C136.831 232.845 137.229 230.678 138.017 228.898C138.813 227.11 139.941 225.75 141.403 224.818C142.873 223.879 144.623 223.409 146.653 223.409C148.684 223.409 150.434 223.879 151.903 224.818C153.381 225.75 154.517 227.11 155.312 228.898C156.108 230.686 156.502 232.852 156.494 235.398C156.494 237.958 156.097 240.148 155.301 241.966C154.506 243.784 153.373 245.174 151.903 246.136C150.441 247.091 148.691 247.568 146.653 247.568ZM146.653 242.966C147.866 242.966 148.847 242.348 149.597 241.114C150.347 239.871 150.718 237.966 150.71 235.398C150.71 233.716 150.54 232.33 150.199 231.239C149.858 230.14 149.384 229.322 148.778 228.784C148.172 228.246 147.464 227.977 146.653 227.977C145.449 227.977 144.475 228.587 143.733 229.807C142.991 231.019 142.616 232.883 142.608 235.398C142.6 237.102 142.763 238.515 143.097 239.636C143.438 240.758 143.915 241.595 144.528 242.148C145.142 242.693 145.85 242.966 146.653 242.966ZM169.341 247.568C167.311 247.568 165.561 247.087 164.091 246.125C162.621 245.155 161.489 243.765 160.693 241.955C159.898 240.136 159.504 237.951 159.511 235.398C159.519 232.845 159.917 230.678 160.705 228.898C161.5 227.11 162.629 225.75 164.091 224.818C165.561 223.879 167.311 223.409 169.341 223.409C171.371 223.409 173.121 223.879 174.591 224.818C176.068 225.75 177.205 227.11 178 228.898C178.795 230.686 179.189 232.852 179.182 235.398C179.182 237.958 178.784 240.148 177.989 241.966C177.193 243.784 176.061 245.174 174.591 246.136C173.129 247.091 171.379 247.568 169.341 247.568ZM169.341 242.966C170.553 242.966 171.534 242.348 172.284 241.114C173.034 239.871 173.405 237.966 173.398 235.398C173.398 233.716 173.227 232.33 172.886 231.239C172.545 230.14 172.072 229.322 171.466 228.784C170.86 228.246 170.152 227.977 169.341 227.977C168.136 227.977 167.163 228.587 166.42 229.807C165.678 231.019 165.303 232.883 165.295 235.398C165.288 237.102 165.451 238.515 165.784 239.636C166.125 240.758 166.602 241.595 167.216 242.148C167.83 242.693 168.538 242.966 169.341 242.966ZM198.903 247.568C196.873 247.568 195.123 247.087 193.653 246.125C192.184 245.155 191.051 243.765 190.256 241.955C189.46 240.136 189.066 237.951 189.074 235.398C189.081 232.845 189.479 230.678 190.267 228.898C191.063 227.11 192.191 225.75 193.653 224.818C195.123 223.879 196.873 223.409 198.903 223.409C200.934 223.409 202.684 223.879 204.153 224.818C205.631 225.75 206.767 227.11 207.562 228.898C208.358 230.686 208.752 232.852 208.744 235.398C208.744 237.958 208.347 240.148 207.551 241.966C206.756 243.784 205.623 245.174 204.153 246.136C202.691 247.091 200.941 247.568 198.903 247.568ZM198.903 242.966C200.116 242.966 201.097 242.348 201.847 241.114C202.597 239.871 202.968 237.966 202.96 235.398C202.96 233.716 202.79 232.33 202.449 231.239C202.108 230.14 201.634 229.322 201.028 228.784C200.422 228.246 199.714 227.977 198.903 227.977C197.699 227.977 196.725 228.587 195.983 229.807C195.241 231.019 194.866 232.883 194.858 235.398C194.85 237.102 195.013 238.515 195.347 239.636C195.688 240.758 196.165 241.595 196.778 242.148C197.392 242.693 198.1 242.966 198.903 242.966ZM221.591 247.568C219.561 247.568 217.811 247.087 216.341 246.125C214.871 245.155 213.739 243.765 212.943 241.955C212.148 240.136 211.754 237.951 211.761 235.398C211.769 232.845 212.167 230.678 212.955 228.898C213.75 227.11 214.879 225.75 216.341 224.818C217.811 223.879 219.561 223.409 221.591 223.409C223.621 223.409 225.371 223.879 226.841 224.818C228.318 225.75 229.455 227.11 230.25 228.898C231.045 230.686 231.439 232.852 231.432 235.398C231.432 237.958 231.034 240.148 230.239 241.966C229.443 243.784 228.311 245.174 226.841 246.136C225.379 247.091 223.629 247.568 221.591 247.568ZM221.591 242.966C222.803 242.966 223.784 242.348 224.534 241.114C225.284 239.871 225.655 237.966 225.648 235.398C225.648 233.716 225.477 232.33 225.136 231.239C224.795 230.14 224.322 229.322 223.716 228.784C223.11 228.246 222.402 227.977 221.591 227.977C220.386 227.977 219.413 228.587 218.67 229.807C217.928 231.019 217.553 232.883 217.545 235.398C217.538 237.102 217.701 238.515 218.034 239.636C218.375 240.758 218.852 241.595 219.466 242.148C220.08 242.693 220.788 242.966 221.591 242.966ZM244.278 247.568C242.248 247.568 240.498 247.087 239.028 246.125C237.559 245.155 236.426 243.765 235.631 241.955C234.835 240.136 234.441 237.951 234.449 235.398C234.456 232.845 234.854 230.678 235.642 228.898C236.438 227.11 237.566 225.75 239.028 224.818C240.498 223.879 242.248 223.409 244.278 223.409C246.309 223.409 248.059 223.879 249.528 224.818C251.006 225.75 252.142 227.11 252.938 228.898C253.733 230.686 254.127 232.852 254.119 235.398C254.119 237.958 253.722 240.148 252.926 241.966C252.131 243.784 250.998 245.174 249.528 246.136C248.066 247.091 246.316 247.568 244.278 247.568ZM244.278 242.966C245.491 242.966 246.472 242.348 247.222 241.114C247.972 239.871 248.343 237.966 248.335 235.398C248.335 233.716 248.165 232.33 247.824 231.239C247.483 230.14 247.009 229.322 246.403 228.784C245.797 228.246 245.089 227.977 244.278 227.977C243.074 227.977 242.1 228.587 241.358 229.807C240.616 231.019 240.241 232.883 240.233 235.398C240.225 237.102 240.388 238.515 240.722 239.636C241.063 240.758 241.54 241.595 242.153 242.148C242.767 242.693 243.475 242.966 244.278 242.966ZM270.205 236.818L270.534 232.614L267.034 235.011L265.364 232.08L269.159 230.273L265.364 228.466L267.034 225.534L270.534 227.932L270.205 223.727H273.557L273.227 227.932L276.727 225.534L278.398 228.466L274.602 230.273L278.398 232.08L276.727 235.011L273.227 232.614L273.557 236.818H270.205ZM288.955 236.818L289.284 232.614L285.784 235.011L284.114 232.08L287.909 230.273L284.114 228.466L285.784 225.534L289.284 227.932L288.955 223.727H292.307L291.977 227.932L295.477 225.534L297.148 228.466L293.352 230.273L297.148 232.08L295.477 235.011L291.977 232.614L292.307 236.818H288.955ZM307.705 236.818L308.034 232.614L304.534 235.011L302.864 232.08L306.659 230.273L302.864 228.466L304.534 225.534L308.034 227.932L307.705 223.727H311.057L310.727 227.932L314.227 225.534L315.898 228.466L312.102 230.273L315.898 232.08L314.227 235.011L310.727 232.614L311.057 236.818H307.705ZM326.455 236.818L326.784 232.614L323.284 235.011L321.614 232.08L325.409 230.273L321.614 228.466L323.284 225.534L326.784 227.932L326.455 223.727H329.807L329.477 227.932L332.977 225.534L334.648 228.466L330.852 230.273L334.648 232.08L332.977 235.011L329.477 232.614L329.807 236.818H326.455ZM355.716 247.568C353.686 247.568 351.936 247.087 350.466 246.125C348.996 245.155 347.864 243.765 347.068 241.955C346.273 240.136 345.879 237.951 345.886 235.398C345.894 232.845 346.292 230.678 347.08 228.898C347.875 227.11 349.004 225.75 350.466 224.818C351.936 223.879 353.686 223.409 355.716 223.409C357.746 223.409 359.496 223.879 360.966 224.818C362.443 225.75 363.58 227.11 364.375 228.898C365.17 230.686 365.564 232.852 365.557 235.398C365.557 237.958 365.159 240.148 364.364 241.966C363.568 243.784 362.436 245.174 360.966 246.136C359.504 247.091 357.754 247.568 355.716 247.568ZM355.716 242.966C356.928 242.966 357.909 242.348 358.659 241.114C359.409 239.871 359.78 237.966 359.773 235.398C359.773 233.716 359.602 232.33 359.261 231.239C358.92 230.14 358.447 229.322 357.841 228.784C357.235 228.246 356.527 227.977 355.716 227.977C354.511 227.977 353.538 228.587 352.795 229.807C352.053 231.019 351.678 232.883 351.67 235.398C351.663 237.102 351.826 238.515 352.159 239.636C352.5 240.758 352.977 241.595 353.591 242.148C354.205 242.693 354.913 242.966 355.716 242.966ZM378.403 247.568C376.373 247.568 374.623 247.087 373.153 246.125C371.684 245.155 370.551 243.765 369.756 241.955C368.96 240.136 368.566 237.951 368.574 235.398C368.581 232.845 368.979 230.678 369.767 228.898C370.563 227.11 371.691 225.75 373.153 224.818C374.623 223.879 376.373 223.409 378.403 223.409C380.434 223.409 382.184 223.879 383.653 224.818C385.131 225.75 386.267 227.11 387.062 228.898C387.858 230.686 388.252 232.852 388.244 235.398C388.244 237.958 387.847 240.148 387.051 241.966C386.256 243.784 385.123 245.174 383.653 246.136C382.191 247.091 380.441 247.568 378.403 247.568ZM378.403 242.966C379.616 242.966 380.597 242.348 381.347 241.114C382.097 239.871 382.468 237.966 382.46 235.398C382.46 233.716 382.29 232.33 381.949 231.239C381.608 230.14 381.134 229.322 380.528 228.784C379.922 228.246 379.214 227.977 378.403 227.977C377.199 227.977 376.225 228.587 375.483 229.807C374.741 231.019 374.366 232.883 374.358 235.398C374.35 237.102 374.513 238.515 374.847 239.636C375.188 240.758 375.665 241.595 376.278 242.148C376.892 242.693 377.6 242.966 378.403 242.966ZM401.091 247.568C399.061 247.568 397.311 247.087 395.841 246.125C394.371 245.155 393.239 243.765 392.443 241.955C391.648 240.136 391.254 237.951 391.261 235.398C391.269 232.845 391.667 230.678 392.455 228.898C393.25 227.11 394.379 225.75 395.841 224.818C397.311 223.879 399.061 223.409 401.091 223.409C403.121 223.409 404.871 223.879 406.341 224.818C407.818 225.75 408.955 227.11 409.75 228.898C410.545 230.686 410.939 232.852 410.932 235.398C410.932 237.958 410.534 240.148 409.739 241.966C408.943 243.784 407.811 245.174 406.341 246.136C404.879 247.091 403.129 247.568 401.091 247.568ZM401.091 242.966C402.303 242.966 403.284 242.348 404.034 241.114C404.784 239.871 405.155 237.966 405.148 235.398C405.148 233.716 404.977 232.33 404.636 231.239C404.295 230.14 403.822 229.322 403.216 228.784C402.61 228.246 401.902 227.977 401.091 227.977C399.886 227.977 398.913 228.587 398.17 229.807C397.428 231.019 397.053 232.883 397.045 235.398C397.038 237.102 397.201 238.515 397.534 239.636C397.875 240.758 398.352 241.595 398.966 242.148C399.58 242.693 400.288 242.966 401.091 242.966ZM423.778 247.568C421.748 247.568 419.998 247.087 418.528 246.125C417.059 245.155 415.926 243.765 415.131 241.955C414.335 240.136 413.941 237.951 413.949 235.398C413.956 232.845 414.354 230.678 415.142 228.898C415.938 227.11 417.066 225.75 418.528 224.818C419.998 223.879 421.748 223.409 423.778 223.409C425.809 223.409 427.559 223.879 429.028 224.818C430.506 225.75 431.642 227.11 432.438 228.898C433.233 230.686 433.627 232.852 433.619 235.398C433.619 237.958 433.222 240.148 432.426 241.966C431.631 243.784 430.498 245.174 429.028 246.136C427.566 247.091 425.816 247.568 423.778 247.568ZM423.778 242.966C424.991 242.966 425.972 242.348 426.722 241.114C427.472 239.871 427.843 237.966 427.835 235.398C427.835 233.716 427.665 232.33 427.324 231.239C426.983 230.14 426.509 229.322 425.903 228.784C425.297 228.246 424.589 227.977 423.778 227.977C422.574 227.977 421.6 228.587 420.858 229.807C420.116 231.019 419.741 232.883 419.733 235.398C419.725 237.102 419.888 238.515 420.222 239.636C420.563 240.758 421.04 241.595 421.653 242.148C422.267 242.693 422.975 242.966 423.778 242.966ZM449.705 236.818L450.034 232.614L446.534 235.011L444.864 232.08L448.659 230.273L444.864 228.466L446.534 225.534L450.034 227.932L449.705 223.727H453.057L452.727 227.932L456.227 225.534L457.898 228.466L454.102 230.273L457.898 232.08L456.227 235.011L452.727 232.614L453.057 236.818H449.705ZM468.455 236.818L468.784 232.614L465.284 235.011L463.614 232.08L467.409 230.273L463.614 228.466L465.284 225.534L468.784 227.932L468.455 223.727H471.807L471.477 227.932L474.977 225.534L476.648 228.466L472.852 230.273L476.648 232.08L474.977 235.011L471.477 232.614L471.807 236.818H468.455ZM487.205 236.818L487.534 232.614L484.034 235.011L482.364 232.08L486.159 230.273L482.364 228.466L484.034 225.534L487.534 227.932L487.205 223.727H490.557L490.227 227.932L493.727 225.534L495.398 228.466L491.602 230.273L495.398 232.08L493.727 235.011L490.227 232.614L490.557 236.818H487.205ZM505.955 236.818L506.284 232.614L502.784 235.011L501.114 232.08L504.909 230.273L501.114 228.466L502.784 225.534L506.284 227.932L505.955 223.727H509.307L508.977 227.932L512.477 225.534L514.148 228.466L510.352 230.273L514.148 232.08L512.477 235.011L508.977 232.614L509.307 236.818H505.955ZM538.455 236.818L538.784 232.614L535.284 235.011L533.614 232.08L537.409 230.273L533.614 228.466L535.284 225.534L538.784 227.932L538.455 223.727H541.807L541.477 227.932L544.977 225.534L546.648 228.466L542.852 230.273L546.648 232.08L544.977 235.011L541.477 232.614L541.807 236.818H538.455ZM557.205 236.818L557.534 232.614L554.034 235.011L552.364 232.08L556.159 230.273L552.364 228.466L554.034 225.534L557.534 227.932L557.205 223.727H560.557L560.227 227.932L563.727 225.534L565.398 228.466L561.602 230.273L565.398 232.08L563.727 235.011L560.227 232.614L560.557 236.818H557.205ZM575.955 236.818L576.284 232.614L572.784 235.011L571.114 232.08L574.909 230.273L571.114 228.466L572.784 225.534L576.284 227.932L575.955 223.727H579.307L578.977 227.932L582.477 225.534L584.148 228.466L580.352 230.273L584.148 232.08L582.477 235.011L578.977 232.614L579.307 236.818H575.955Z" fill="white"/>
</svg>
