<svg width="628" height="397" viewBox="0 0 628 397" fill="none" xmlns="http://www.w3.org/2000/svg">
<path d="M416 1.99999C409.9 5.39999 408.7 6.39999 402 12.9C398.4 16.5 397.1 18.1 399 16.4C400.9 14.8 402.8 13 403.2 12.5C403.6 11.9 404 12.5 404 13.8C404 15.1 403.6 15.9 403.2 15.6C402.7 15.3 402.3 15.7 402.3 16.4C402.3 17.2 404.1 16.5 407 14.4C409.6 12.5 412.3 11 412.9 11C414.3 11 419 15.5 419 16.8C419 17.3 416.1 17.7 412.5 17.8C409 17.8 405.3 18.3 404.3 18.9C402.9 19.7 403.5 19.8 406.5 19.3C410.3 18.8 410.4 18.8 408.5 20.3C406.6 21.8 406.8 21.9 412.2 22C419.6 22 420.5 23.4 419 32.2C417.8 40 417.9 44.1 419.2 38C419.7 35.5 420.2 32.9 420.2 32.2C420.3 31.6 420.8 31 421.3 31C421.8 31 422 31.6 421.7 32.2C421.5 32.9 421.6 34.4 422 35.5C422.5 36.8 423 35 423.5 30C424 23.7 423.8 17.3 423 16.2C422.8 16.1 422.7 15.6 422.6 15.1C422.4 13.6 417.1 7.99999 415.8 7.99999C413.8 7.99999 417.3 4.99999 420.1 4.39999C423 3.59999 426 3.49999 427.9 4.09999C429.6 4.59999 434 8.79999 434 9.99999C434 10.4 434.5 11 435.1 11.2C435.6 11.4 436.2 12.2 436.4 13C436.5 13.8 437.1 15.5 437.8 16.7C438.5 17.9 439 19.3 438.9 19.7C438.8 20.1 438.9 20.7 439 21C439.3 21.6 439.9 26 440.3 31C440.5 32.9 440.8 40.3 441 47.5C441.2 56.6 441.5 59.3 442 56.5C442.8 51.9 443 52 443.5 57.4C443.7 59.5 444.2 61.5 444.6 61.9C446.2 63.4 443.3 20 441.8 18.4C441.4 18.1 441.4 17.2 441.6 16.5C441.9 15.8 441.6 14.9 441.1 14.5C440.5 14.2 440.2 13.4 440.5 12.9C440.9 12.4 440.6 12 440 12C439.4 12 439.2 11.5 439.5 11C439.8 10.4 439.7 9.99999 439.2 9.99999C438.7 9.99999 437.5 8.39999 436.6 6.49999C435.6 4.49999 434.5 3.19999 434.1 3.49999C433.6 3.69999 432.5 3.09999 431.5 1.99999C429.1 -0.700013 420.9 -0.600013 416 1.99999Z" fill="#15966B"/>
<path d="M440.2 69C440.2 70.9 440.4 71.7 440.7 70.7C440.9 69.8 440.9 68.2 440.7 67.2C440.4 66.3 440.2 67.1 440.2 69Z" fill="#15966B"/>
<path d="M443.3 70.5C443.3 73.2 443.5 74.3 443.7 72.7C443.9 71.2 443.9 69 443.7 67.7C443.5 66.5 443.3 67.7 443.3 70.5Z" fill="#15966B"/>
<path d="M403 12.5C402.7 13 400.7 15.1 398.5 16.9C396.3 18.8 394.6 20.8 394.8 21.2C394.9 21.6 394.6 22 394 22C393.5 22 393 22.9 393 24C393 25.8 394.9 26.2 398 25C398.3 24.8 398.8 24.8 399.3 24.9C399.7 24.9 400 24.5 400 23.9C400 23.3 400.7 23 401.5 23.4C402.3 23.7 403 23.4 403 22.9C403 22.3 403.8 22 404.8 22.2C405.7 22.4 407.4 21.7 408.4 20.7C410.3 18.7 410.3 18.7 406.7 19.3C403 19.9 401.1 18.3 403.2 16.2C403.7 15.7 404 14.4 403.8 13.4C403.6 12.3 403.2 11.9 403 12.5Z" fill="#15C16B"/>
<path d="M420.2 32.2C419.8 37 418.6 42 417.9 42C417.4 42 417.3 42.7 417.6 43.5C418 44.3 417.7 45.6 417.1 46.4C416.5 47.1 416.3 48 416.7 48.3C417 48.7 416.8 49.5 416.3 50.2C415.7 50.9 415.2 52.2 415.2 53C415 57.5 399.9 111.8 392.3 135.3C390.4 141.3 389 146.4 389.3 146.6C389.5 146.8 390.3 145.2 391 143C391.8 140.7 392.7 138.7 393.1 138.4C394 137.9 393.4 142.1 391.9 146.8C391.3 148.6 391 150.3 391.2 150.6C391.7 151 400.8 123.1 406.7 103.1C411.9 85.4 419 56.8 419.3 52.3C419.4 51.1 419.8 49.8 420.2 49.4C420.6 49 420.7 47.6 420.4 46.4C420 45 420.2 44 420.9 44C421.5 44 421.7 42.9 421.4 41C421 39.1 421.2 38 421.9 38C422.6 38 422.7 37.2 422.1 35.7C421.7 34.5 421.5 32.9 421.7 32.2C422 31.6 421.8 31 421.3 31C420.7 31 420.3 31.6 420.2 32.2Z" fill="#15C16B"/>
<path d="M442 56.4C442 58.4 441.6 60 441 60C440.5 60 440.1 62.7 440.2 66.2C440.5 84 429 136.7 417.6 169.9C416.2 174 415.2 177.5 415.4 177.7C415.6 178 416.6 175.7 417.5 172.8C418.5 169.9 419.6 167.1 420.1 166.6C421.5 165.1 420.2 171.1 417.6 178.9C416.2 183 415.2 186.5 415.4 186.7C415.8 187.2 421.8 170 426.9 153.5C435.9 124.6 443.1 89.3 443.1 74.7C443.1 70.3 443.5 66 444.1 65.4C444.8 64.5 444.8 62.8 444 60.1C443.4 57.8 443.2 55.5 443.5 55C443.8 54.5 443.6 53.9 443 53.5C442.4 53.1 442 54.3 442 56.4Z" fill="#15C16B"/>
<path d="M185.5 4.3C182.3 7.4 180.7 10.2 179.2 15.2C172 38.3 174.9 81.6 186.6 128.5C190 141.9 191.9 147.3 190.6 140C190.3 138.1 189.8 134.9 189.5 133C189.1 129.6 189.1 129.6 189.9 132.5C191.3 137.4 196.1 149.7 195.5 147C195.2 145.6 193.6 139.3 191.9 133C183.9 102.6 180 74.9 180 48.8C180 22.6 183.6 9.3 191.9 5.1C194 4 195.9 3.3 196.2 3.5C196.4 3.8 197.5 4.1 198.6 4.3C199.6 4.5 201.6 5.2 202.9 5.9L205.3 7.2L201.6 10.5C199.6 12.3 197.7 14.8 197.4 16.1C197.1 17.4 196.6 19.4 196.3 20.6C194.5 28.1 205.2 75.5 218.1 117.5C227.9 149.2 244.7 198.3 247.1 201.9C248 203.2 248 203.1 247.5 201.5C245.1 194.7 244.2 191 244.9 191C245.4 191 246.3 192.4 247 194C247.7 195.7 248.4 196.9 248.7 196.7C248.9 196.5 247.5 192.3 245.6 187.3C230.1 146.6 205.8 61.9 201.8 34.2C200.2 23.5 200.8 22.5 208.1 22.6C212.7 22.6 219.2 23.4 221 24.1C221.3 24.2 221.8 24.2 222.3 24.1C222.7 24.1 223 24.5 223 25.2C223 25.8 223.3 26 223.7 25.7C224 25.3 224.9 25.5 225.6 26.1C226.5 26.8 227 26.5 227.5 24.8C228.1 23.1 227.7 22.2 226.1 21.2C225 20.4 224 19.3 224 18.8C224 17.7 214.2 8 213 8C212.6 8 212 7.3 211.6 6.5C211.3 5.7 210.4 5 209.5 5C208.7 5 208 4.5 208 3.9C208 3.4 207.6 3.2 207 3.5C206.5 3.8 206 3.6 206 2.9C206 2.2 205.7 1.9 205.4 2.3C205 2.6 204.1 2.3 203.3 1.5C202.4 0.499997 199.8 -3.02189e-06 195.8 -3.02189e-06C190 -3.02189e-06 189.6 0.199997 185.5 4.3ZM209.8 12.2C210.5 12.9 211 13.1 211 12.6C211 12.2 211.7 12.5 212.5 13.2C213.3 13.9 214.6 15.1 215.5 15.8C216.3 16.5 217 17.4 217 17.9C217 18.8 213.4 18.7 212.4 17.8C212.1 17.4 209.4 17.4 206.3 17.6C200.4 18.1 200.3 17.7 204.3 13.2C206.6 10.7 208 10.4 209.8 12.2Z" fill="#40C16B"/>
<path d="M401 12.5C398.6 15 396.8 17 397.1 17C397.4 17 399.6 15 402 12.5C404.4 10 406.2 8 405.9 8C405.6 8 403.4 10 401 12.5Z" fill="#40C16B"/>
<path d="M391.9 141C391.3 142.6 390.4 143.8 390 143.5C389.6 143.2 389.4 144 389.8 145.2C390.2 146.7 390 147.1 389.1 146.5C388.1 146 388 146.3 388.5 147.9C388.9 149.1 388.7 150 388.1 150C387.5 150 387.3 150.7 387.6 151.5C388 152.3 387.7 153 387.1 153C386.5 153 386.3 153.7 386.6 154.5C387 155.3 386.7 156 386.1 156C385.5 156 385.3 156.7 385.6 157.5C386 158.3 385.7 159 385.1 159C384.5 159 384.3 159.7 384.6 160.5C385 161.3 384.7 162 384.1 162C383.5 162 383.3 162.7 383.6 163.5C384 164.3 383.7 165 383 165C382.4 165 382.1 165.4 382.5 165.9C382.8 166.4 382.6 167.1 382 167.5C381.4 167.9 381.2 168.6 381.5 169.1C381.9 169.6 381.6 170 381 170C380.3 170 380 170.7 380.4 171.5C380.7 172.3 380.5 173 379.9 173C379.3 173 379 173.7 379.4 174.5C379.7 175.3 379.5 176 379 176C378.4 176 378.1 176.3 378.1 176.7C378.2 177.2 378.1 177.8 378 178.2C377.9 178.7 377.6 179.4 377.5 180C377.4 180.5 377.1 181.2 377 181.5C376.9 181.8 376.7 182.3 376.6 182.7C376.4 183.2 375.8 184.6 375.2 186C374.6 187.4 372.7 192.2 371 196.7C368.1 204.4 367.6 205 364.3 205.9C362.3 206.5 359.1 208 357.1 209.4C354.8 210.9 346.9 213.4 334.5 216.5C317.1 220.8 314.8 221.2 307 220.7C294.7 219.9 265.2 212.2 261 208.7C259.3 207.2 256.7 206 255.4 206C253.5 206 252.5 205.1 251 201.7C249.9 199.4 249.3 198.6 249.6 200C250.6 204.2 252.9 207 255.4 207C256.7 207 259.7 208.6 262.1 210.4C264.5 212.3 266.6 213.7 266.8 213.5C267.8 212.6 270.9 215.1 270.4 216.4C270.1 217.2 270.6 218.6 271.4 219.7C272.3 220.7 273.7 222.4 274.5 223.5C276 225.3 276 225.2 274.6 222.3C273.7 220.6 272.6 218.8 272 218.5C270.5 217.6 270.8 216 272.6 216C273.4 216 273.9 216.4 273.6 216.8C272.5 218.6 297.1 224.3 307.6 224.8C316.7 225.2 319.1 224.9 332.4 221.6C340.5 219.6 347.4 218 347.6 218C347.9 218 347 219.8 345.8 222C343.9 225.3 341.6 227 332.5 231.9C313.4 242.2 306.7 242.2 287.7 232C281.8 228.8 277.2 226.6 277.5 227.1C277.8 227.5 280.8 229.4 284.1 231.1C288.1 233.3 289.7 234.6 288.8 235.1C288.1 235.6 286.1 235 284 233.8C282.1 232.6 281 232.2 281.5 232.8C282.1 233.4 285.2 235.4 288.5 237.2C294.2 240.4 294.6 240.8 296.2 246.5C297.1 249.8 297.9 251.8 297.9 251C297.9 250.2 297.3 247.1 296.6 244.3C295.8 241.2 295.6 238.8 296.1 238.4C297.2 237.8 297.1 237.8 297.6 241C297.9 243.9 300.8 252 300.9 250.5C301 249.9 300.6 247.9 300 246.1C299.5 244.2 299.2 242.5 299.3 242.4C299.5 242.2 301.9 242.7 304.8 243.4C309.2 244.6 310.8 244.6 315.2 243.4C318.1 242.7 320.6 242.2 320.7 242.4C320.9 242.6 319.7 248.3 318 255C316.3 261.7 315.2 267.5 315.5 267.8C315.8 268.1 316 267.8 316 267.2C316 265.6 318 260.7 318.5 261.1C318.7 261.4 318.5 263.3 318 265.4C317.5 267.5 317.5 268.9 317.9 268.4C318.4 267.9 320.3 261.5 322.3 254.1C324.3 246.8 326.1 240.6 326.2 240.5C327.2 239.7 339.2 233 339.6 233C340.4 233 323.8 265.5 321.6 268L319.5 270.5L321.7 268.7C323.1 267.5 324 267.2 324.5 268C325.2 269.1 316.3 277.9 314.3 278C313.7 278 312.9 277.4 312.7 276.7C312.3 275.8 312.1 275.8 312.1 276.8C311.9 280 315.3 278.9 321.1 273.8C326.9 268.7 328 267 339.4 244.5C351.2 221.2 351.7 220.4 357.9 215.1C361.8 211.9 364.6 210.2 364.8 210.9C365 211.5 362.9 216 360.2 220.8C353.1 233.2 347.6 244.4 344.6 252.8C341.5 261.4 341.7 261.6 351.9 260.6C364.9 259.4 377.1 253.7 386.4 244.4C389.5 241.3 392 238.4 392 237.9C392 237.4 392.5 237 393.1 237C394.6 237 393.6 264.7 391.4 286C389.3 306.5 384.2 331.4 380.3 339.5C379 342.3 379 342.4 380.5 340.5C381.3 339.4 382.6 336.8 383.2 334.8C383.8 332.7 384.7 331 385.2 331C386.3 331 386.2 331.9 384.6 337.5C383.8 340.1 383.5 341.9 383.9 341.4C385.3 339.9 389.8 323.2 392 311C395.7 291.6 397 277.5 397.6 252L398.3 227.5L401.7 220.7C403.5 217 404.7 214 404.3 214C403.8 214 404.1 213.6 404.8 213.1C405.5 212.7 406.2 211.3 406.3 210.2C406.4 209 406.8 208 407.3 208C407.7 208 407.8 207.5 407.5 207C407.2 206.4 407.4 206 408 206C408.6 206 408.9 205.6 408.5 205.1C408.2 204.6 408.4 203.9 409 203.5C409.6 203.1 409.8 202.4 409.5 201.9C409.1 201.4 409.4 201 410 201C410.6 201 410.9 200.6 410.5 200.1C410.2 199.6 410.4 198.9 411 198.5C411.6 198.1 411.8 197.4 411.5 196.9C411.1 196.4 411.3 196 411.9 196C412.5 196 412.7 195.3 412.4 194.5C412 193.7 412.3 193 413 193C413.6 193 413.8 192.5 413.5 192C413.2 191.4 413.3 191 413.9 191C414.5 191 414.7 190.3 414.4 189.5C414 188.7 414.2 188 414.8 188C415.3 188 415.8 187.4 415.7 186.7C415.6 183.6 416.1 181.9 416.9 182.4C417.4 182.8 417.6 182 417.2 180.8C416.9 179.5 417.1 178.9 417.7 179.3C418.4 179.8 418.6 179.2 418.2 177.8C417.9 176.5 418.1 175.9 418.7 176.3C419.4 176.8 419.6 176.2 419.2 174.8C418.9 173.7 419.1 172.9 419.6 173.2C420.1 173.6 420.5 172.1 420.6 170.1C420.6 167.8 420.2 166.3 419.4 166.3C418.8 166.3 418.5 167.2 418.8 168.3C419.1 169.6 418.9 170.1 418.3 169.7C417.6 169.2 417.4 169.8 417.8 171.2C418.1 172.5 417.9 173.1 417.3 172.7C416.6 172.2 416.4 172.8 416.8 174.2C417.1 175.6 416.9 176.1 416.2 175.6C415.4 175.1 415.2 175.4 415.6 176.4C415.9 177.3 415.7 178 415.1 178C414.5 178 414.3 178.7 414.6 179.5C415 180.3 414.7 181 414 181C413.4 181 413.2 181.4 413.5 182C413.8 182.5 413.7 183 413.1 183C412.5 183 412.3 183.7 412.6 184.5C413 185.3 412.7 186 412.1 186C411.5 186 411.3 186.7 411.7 187.7C412.1 188.8 412 189.1 411.2 188.6C410.4 188.1 410.2 188.4 410.6 189.4C410.9 190.3 410.7 191 410.1 191C409.5 191 409.3 191.7 409.6 192.5C410 193.3 409.7 194 409 194C408.4 194 408.2 194.4 408.5 195C408.8 195.5 408.7 196 408.1 196C407.5 196 407.3 196.7 407.6 197.5C408 198.3 407.7 199 407 199C406.4 199 406.2 199.4 406.5 200C406.8 200.5 406.6 201 406 201C405.4 201 405.1 201.4 405.5 201.9C405.8 202.4 405.6 203.1 405 203.5C404.4 203.9 404.2 204.6 404.5 205.1C404.9 205.6 404.6 206 404.1 206C403.5 206 403.1 206.3 403.2 206.7C403.3 207.2 400.5 213.3 397 220.5C389.9 234.7 383 243.2 374 249C368.5 252.6 355.6 257 350.9 257C348.2 257 347.9 256.7 348.5 254.7C349.9 250.4 357.2 235.4 362.7 225.8C367.6 217 378.5 191.7 379.5 186.5C379.7 185.4 379.9 184.4 380.1 184.2C380.2 184.1 380.4 183.5 380.5 183C380.6 182.4 380.9 181.7 381 181.2C381.1 180.8 381.2 180.2 381.1 179.7C381.1 179.3 381.4 179 382 179C382.5 179 382.7 178.3 382.4 177.5C382 176.7 382.3 176 382.9 176C383.5 176 383.7 175.3 383.4 174.5C383 173.7 383.3 173 383.9 173C384.5 173 384.7 172.3 384.4 171.5C384 170.7 384.3 170 384.9 170C385.5 170 385.7 169.3 385.4 168.5C385 167.7 385.3 167 385.9 167C386.5 167 386.7 166.3 386.4 165.5C386 164.7 386.3 164 386.9 164C387.5 164 387.7 163.3 387.4 162.5C387 161.7 387.2 161 387.6 161C388.1 161 388.6 159.8 388.7 158.3C388.7 156.8 389.3 155.4 389.9 155.2C390.4 155 390.6 154.2 390.3 153.4C390 152.6 390.2 152 390.8 152C391.4 152 391.6 151 391.2 149.8C390.9 148.5 391.1 147.9 391.7 148.3C392.4 148.8 392.6 148.2 392.2 146.8C391.9 145.7 392.1 144.9 392.6 145.2C393.1 145.6 393.5 144 393.5 141.9C393.5 137.2 393.2 137 391.9 141ZM293 237.2C293 237.7 293.5 237.8 294 237.5C294.6 237.2 295 237.4 295 237.9C295 239.3 294.7 239.3 291.6 237.9C290.2 237.2 289.3 236.3 289.6 235.9C290.2 234.9 293 235.9 293 237.2Z" fill="#40C16B"/>
<path d="M191.1 145C191.1 145.8 191.5 147.4 192 148.5C192.5 149.8 192.9 149.9 192.9 149C192.9 148.2 192.5 146.6 192 145.5C191.5 144.2 191.1 144.1 191.1 145Z" fill="#40C16B"/>
<path d="M197.1 154C197.1 154.8 197.5 156.4 198 157.5C198.5 158.8 198.9 158.9 198.9 158C198.9 157.2 198.5 155.6 198 154.5C197.5 153.2 197.1 153.1 197.1 154Z" fill="#40C16B"/>
<path d="M257 210.4C257 210.6 258.4 211.8 260 213C261.7 214.2 263 214.9 263 214.6C263 214.4 261.7 213.2 260 212C258.4 210.8 257 210.1 257 210.4Z" fill="#40C16B"/>
<path d="M257.5 218C258.4 219.6 259.3 221 259.6 221C259.8 221 259.4 219.6 258.5 218C257.6 216.3 256.7 215 256.4 215C256.2 215 256.6 216.3 257.5 218Z" fill="#40C16B"/>
<path d="M266.4 217.7C267.9 219.4 271.4 225 274.1 230.2C276.7 235.3 279 239.2 279 238.7C279.1 236.4 269.7 220.1 266.8 217.5L263.5 214.5L266.4 217.7Z" fill="#40C16B"/>
<path d="M280 234.4C280 235.5 285 245 285.5 245C285.8 245 284.8 242.6 283.4 239.7C280.6 234.2 280 233.2 280 234.4Z" fill="#40C16B"/>
<path d="M301.6 255C302 256.9 302.7 259.4 303.1 260.5C303.7 261.9 303.8 261.4 303.4 259C303 257.1 302.3 254.6 301.9 253.5C301.3 252.1 301.2 252.6 301.6 255Z" fill="#40C16B"/>
<path d="M367.5 261.6C361.8 264 340.6 270.6 331.1 273C328.4 273.7 325.3 275.6 322.6 278.2L318.5 282.2L322.9 278.6C326 276.1 328 275.2 329.3 275.6C330.4 276 331.6 275.7 332.1 274.9C332.8 273.8 333 273.8 333 274.8C333 275.5 332 276.4 330.7 276.9C329.4 277.4 327.8 278.6 327 279.6C325.6 281.4 325.6 281.4 327.5 279.8C328.6 278.9 332.4 277.4 336 276.5C344.8 274.3 356.8 270.5 366.8 266.9C374.8 263.9 375.2 263.9 376.6 265.7C379.8 269.7 383.1 277.4 383.7 281.8C384.3 287.1 381.2 297.8 376 308.1C374.3 311.4 373.2 314.6 373.6 315.2C374 315.8 373.9 316 373.3 315.7C372.7 315.3 371.2 316.7 370.1 318.8L368 322.5L370.4 319.5C373.4 316 374.8 316.7 372.5 320.7L370.8 323.5L372.9 321C376.3 317 382.6 304.1 385.5 295.5C389.8 282.8 388.1 273.4 379.8 262.7C378.2 260.7 376.1 259 375.2 259C374.2 259.1 370.8 260.2 367.5 261.6Z" fill="#40C16B"/>
<path d="M379.6 319.2C376.1 324.2 373.1 329 373.5 329C373.8 329 375.3 327.1 377 324.8C379.4 321.5 380 321.1 380 322.8C380 324 379.5 325 378.8 325C378.2 325 378 325.3 378.3 325.6C378.7 326 378 327.7 376.8 329.4C374.8 332.3 374.8 332.4 376.7 330.5C377.8 329.4 379.9 326.4 381.4 323.9C383.6 319.9 383.8 319.1 382.6 318.1C381.5 317.1 380.8 317.4 379.6 319.2Z" fill="#40C16B"/>
<path d="M362 329.2C359.1 332.7 357.9 334.4 359.4 333C362.2 330.5 368.5 323 367.8 323C367.6 323 365 325.8 362 329.2Z" fill="#40C16B"/>
<path d="M367 335.7L361.5 341.5L367.3 336C370.4 333 373 330.4 373 330.3C373 329.5 372 330.4 367 335.7Z" fill="#40C16B"/>
<path d="M369 338.7L363.5 344.5L369.3 339C372.4 336 375 333.4 375 333.3C375 332.5 374 333.4 369 338.7Z" fill="#40C16B"/>
<path d="M189.6 133C189.9 134.9 190.2 138.2 190.3 140.2C190.4 142.3 190.9 144 191.4 144C191.8 144 192 144.9 191.7 146C191.4 147.3 191.6 147.8 192.3 147.3C192.9 146.9 193.1 147.5 192.8 148.8C192.4 150 192.6 151 193.2 151C193.7 151 193.8 151.9 193.5 153C193.1 154.2 193.3 155 194 155C194.7 155 195 155.7 194.6 156.5C194.3 157.3 194.5 158 195.1 158C195.7 158 196 158.7 195.6 159.5C195.3 160.3 195.5 161 196.1 161C196.7 161 197 161.7 196.6 162.5C196.3 163.3 196.5 164 197.1 164C197.7 164 198 164.7 197.6 165.5C197.3 166.3 197.5 167 198.1 167C198.7 167 199 167.7 198.6 168.5C198.3 169.3 198.5 170 199.1 170C199.7 170 200 170.7 199.6 171.5C199.3 172.3 199.5 173 200 173C200.5 173 200.7 173.7 200.4 174.5C200 175.3 200.3 176 200.9 176C201.5 176 201.9 176.3 201.9 176.7C201.8 177.2 201.9 177.8 202 178.2C202.1 178.7 202.4 179.4 202.5 180C202.6 180.5 202.8 181.1 202.9 181.2C203.1 181.4 203.3 182.4 203.5 183.6C203.8 184.8 204.9 187.9 206.1 190.6C207.3 193.3 208.4 196 208.5 196.6C208.9 198.3 216.5 216 220 223.1C222.8 228.9 223 230.2 223.1 240.9C223.2 247.3 223.5 251.4 223.7 250C224.3 246.7 225.8 245.2 225.6 248.2C225.5 249.5 225.7 252.1 226.1 254C226.5 256.3 226.8 254 226.9 247.3L227 237.1L233.8 243.8C244.2 254.2 255.7 259.6 269.5 260.6C277.7 261.2 277.7 261.2 277.4 258.9C277.3 257.6 277.1 256.4 277 256.2C276.8 256.1 276.6 255.5 276.5 255C276.4 254.4 276.1 253.7 276 253.2C275.9 252.8 275.8 252.2 275.9 251.7C275.9 251.3 275.5 251 274.9 251C274.4 251 274.1 250.6 274.5 250.1C274.8 249.6 274.6 248.9 274 248.5C273.4 248.1 273.2 247.4 273.5 246.9C273.9 246.4 273.6 246 273 246C272.4 246 272.2 245.5 272.5 245C272.8 244.4 272.6 244 272 244C271.4 244 271.1 243.6 271.5 243.1C271.8 242.6 271.6 241.9 271 241.5C270.4 241.1 270.2 240.4 270.5 239.9C270.9 239.4 270.6 239 270 239C269.4 239 269.2 238.5 269.5 238C269.8 237.4 269.6 237 269 237C268.4 237 268.2 236.5 268.5 236C268.8 235.4 268.6 235 268 235C267.4 235 267.2 234.5 267.5 234C267.8 233.4 267.7 233 267.3 233C266.8 233 265.6 231.6 264.7 230C263.7 228.3 263.1 227 263.4 227C263.7 227 263.1 226.1 262 225C260.8 223.8 260.2 222.5 260.5 222C260.9 221.4 260.7 221 260.1 221C259.5 221 258.4 219.6 257.5 218C256.6 216.3 256.2 215 256.5 215C256.9 215 256.4 214.2 255.4 213.3C253.9 211.7 253.9 211.6 255.6 211C257.8 210.2 261.2 211.9 260.3 213.4C260 213.9 260.2 214 260.8 213.6C261.4 213.3 262.3 213.8 262.9 214.7C263.5 215.7 264 216.1 264 215.6C264 215.1 265.1 215.7 266.5 217C267.8 218.2 268.7 219.7 268.4 220.2C268.1 220.7 268.4 220.9 269.2 220.8C269.9 220.6 270.4 221.3 270.4 222.2C270.3 223.2 270.6 223.8 271 223.5C272 222.9 274.2 227.9 273.4 229.2C272.9 229.9 273.2 230 274 229.5C275 228.9 275.2 229.1 274.7 230.4C274.2 231.5 274.4 231.9 275.2 231.4C276 230.9 276.1 231.2 275.7 232.4C275.2 233.5 275.4 233.9 276.2 233.4C277 232.9 277.1 233.2 276.7 234.4C276.2 235.5 276.4 235.9 277.2 235.4C278 234.9 278.1 235.2 277.7 236.4C277.2 237.5 277.4 237.9 278.2 237.4C279 236.9 279.1 237.2 278.7 238.3C278.4 239.3 278.5 240 279.1 240C279.7 240 279.8 240.4 279.5 241C279.2 241.5 279.4 242 280 242C280.6 242 280.8 242.4 280.5 243C280.2 243.5 280.4 244 281 244C281.6 244 281.8 244.4 281.5 245C281.2 245.5 281.4 246 282 246C282.6 246 282.8 246.4 282.5 247C282.2 247.5 282.4 248 283 248C283.6 248 283.8 248.4 283.5 249C283.2 249.5 283.4 250 284 250C284.6 250 284.8 250.4 284.5 251C284.2 251.5 284.4 252 285 252C285.6 252 285.8 252.4 285.5 253C285.2 253.5 285.4 254 286 254C286.6 254 286.8 254.4 286.5 255C286.2 255.5 286.4 256 287 256C287.6 256 287.8 256.4 287.5 257C287.2 257.5 287.4 258 288 258C288.6 258 288.8 258.4 288.5 259C288.2 259.5 288.4 260 289 260C289.6 260 289.8 260.4 289.5 261C289.2 261.5 289.4 262 290 262C290.6 262 290.8 262.4 290.5 263C290.2 263.5 290.4 264 291 264C291.6 264 291.8 264.4 291.5 265C291.2 265.5 291.4 266 292.1 266C292.8 266 293.1 266.3 292.7 266.6C291.9 267.4 297.1 273.1 298.1 272.5C298.5 272.2 300.1 273.5 301.5 275.5C303 277.4 304.6 278.7 305.1 278.4C305.6 278.1 306 278.5 306.1 279.2C306.1 279.9 306.6 279.2 307.1 277.5C307.6 275.8 307.6 274.2 307.1 273.7C306.6 273.2 306.4 272.1 306.7 271.4C307 270.6 306.7 270 306 270C305.3 270 305.1 269.2 305.5 268C305.9 266.8 305.7 266 305 266C304.3 266 304.1 265.2 304.5 264C304.9 262.8 304.7 262 304 262C303.3 262 303 261.2 303.3 260C303.6 258.9 303.5 258.2 303 258.5C302.1 259.1 300.8 253.2 301.6 251.9C301.9 251.4 301.6 251 300.9 251C300.3 251 300 250.2 300.3 249C300.6 247.9 300.4 247.2 300 247.5C299.2 248 297.7 243.3 297.6 240C297.5 239.2 296.9 238.6 296.3 238.7C295.6 238.9 295 238.5 295 237.8C295 237.2 294.7 236.9 294.4 237.3C293.5 238.2 290 234.8 290.7 233.7C291 233.1 290.8 233 290.2 233.4C288.9 234.2 282.7 230.6 283.7 229.6C284.1 229.2 283.6 229.2 282.6 229.6C281.1 230.2 280.9 230 281.5 229C282.1 228.1 281.9 227.9 281.1 228.5C279.5 229.5 273.6 223.5 274.6 221.9C275 221.2 274.9 221 274.2 221.4C272.6 222.4 271.8 220.3 273 218C273.9 216.4 273.8 216 272.4 216C271.4 216 271 216.5 271.4 217.5C271.7 218.3 271.4 219 270.9 219C270.2 219 270 218.1 270.3 216.9C270.6 215.7 270.3 214.7 269.4 214.3C268.6 214 268.3 213.3 268.7 212.6C269.1 212 268.6 212.1 267.7 212.9C266.2 214.1 265.6 213.8 265.9 211.8C265.9 211.4 265.4 211.3 264.6 211.6C263.8 211.9 262.9 211.6 262.4 210.9C261.9 210.1 262.1 209.9 263 210.5C263.9 211.1 264.1 210.9 263.6 210.1C263.1 209.4 262.6 209.1 262.3 209.4C262 209.7 260.8 209.3 259.6 208.5C258.5 207.7 256.6 207 255.4 207C252.8 207 250.5 204.6 251.6 202.9C252.1 202.1 251.9 202 251 202.5C250 203.1 249.8 202.8 250.2 201.2C250.6 199.8 250.4 199.2 249.7 199.7C249.1 200.1 248.9 199.7 249.3 198.7C249.7 197.7 249.5 197 248.9 197C248.3 197 248.1 196.3 248.4 195.4C248.7 194.6 248.6 194.2 248.1 194.5C247.6 194.8 246.9 194.1 246.5 193C245.6 190.1 244.5 190.6 244.5 193.9C244.5 195.5 244.8 196.6 245.3 196.3C245.9 195.9 246.4 197.8 246.3 200.7C246.2 201.4 246.7 201.7 247.3 201.3C247.9 200.9 248.1 201.3 247.7 202.3C247.4 203.3 247.5 204 248.1 204C248.7 204 248.9 205 248.5 206.2C248 208.1 248.1 208.2 249 207C250 205.8 250.1 205.9 249.7 207.7C249.4 209 249.8 210.1 250.7 210.4C251.5 210.8 252 211.7 251.6 212.5C251.3 213.3 251.5 214 252.1 214C252.7 214 252.8 214.4 252.5 215C252.2 215.5 252.4 216 253 216C253.6 216 253.8 216.4 253.5 217C253.2 217.5 253.4 218 254 218C254.6 218 254.8 218.4 254.5 219C254.2 219.5 254.4 220 255 220C255.6 220 255.9 220.4 255.6 220.9C255.3 221.4 255.7 222.1 256.6 222.4C257.4 222.7 257.8 223.4 257.5 224C257.2 224.5 257.4 225 258 225C258.6 225 258.8 225.4 258.5 226C258.2 226.5 258.4 227 258.9 227C259.5 227 260 227.7 260 228.5C260 229.3 260.5 230 261.1 230C261.6 230 261.8 230.4 261.5 231C261.2 231.5 261.4 232 262 232C262.6 232 262.8 232.4 262.5 233C262.2 233.5 262.4 234 263 234C263.6 234 263.8 234.4 263.5 235C263.2 235.5 263.4 236 264 236C264.6 236 264.8 236.4 264.5 237C264.2 237.5 264.4 238 265 238C265.6 238 265.8 238.4 265.5 239C265.2 239.5 265.4 240 266 240C266.6 240 266.8 240.4 266.5 241C266.2 241.5 266.4 242 267 242C267.6 242 267.8 242.4 267.5 243C267.2 243.5 267.4 244 268 244C268.6 244 268.9 244.4 268.5 244.9C268.2 245.4 268.4 246.1 269 246.5C269.6 246.9 269.8 247.6 269.5 248.1C269.1 248.6 269.4 249 270.1 249C270.8 249 271 249.3 270.7 249.7C270.3 250 270.5 250.9 271.1 251.7C271.7 252.4 271.9 253 271.6 253C271.2 253 271.4 253.9 272 255.1C273.2 257.3 273.3 257.3 262.5 255.3C253.7 253.7 240 245.4 233.8 237.8C229.3 232.4 223.4 221.4 218 208.5C215.7 203 213.3 197.9 212.8 197.2C212.2 196.6 212.1 196 212.4 196C212.8 196 212.5 195 211.8 193.7C211.1 192.5 210.5 191.2 210.4 190.7C210.3 190.3 210.1 189.7 210 189.2C209.9 188.8 209.8 188.2 209.9 187.7C209.9 187.3 209.5 187 208.9 187C208.4 187 208.1 186.6 208.5 186.1C208.8 185.6 208.6 184.9 208 184.5C207.4 184.1 207.2 183.4 207.5 182.9C207.9 182.4 207.7 182 207.1 182C206.5 182 206.3 181.3 206.6 180.5C207 179.7 206.7 179 206.1 179C205.5 179 205.3 178.3 205.6 177.5C206 176.7 205.7 176 205 176C204.4 176 204.2 175.5 204.6 174.9C204.9 174.3 204.8 173.5 204.2 173.1C203.5 172.7 202.8 171.3 202.6 170C202.4 168.6 202.1 167.4 201.9 167.2C201.8 167.1 201.7 166.6 201.6 166.1C201.6 165.6 201.2 164.9 200.8 164.5C200.4 164.1 200.4 163.2 200.7 162.4C201 161.6 200.7 161 200.1 161C199.5 161 199.3 160.3 199.7 159.3C200.2 158.1 200 157.9 199 158.5C198 159.1 197.8 158.8 198.2 157.2C198.6 155.8 198.4 155.2 197.7 155.7C197.1 156.1 196.9 155.5 197.2 154.2C197.6 153 197.4 152 196.8 152C196.2 152 196 151.3 196.4 150.5C196.7 149.7 196.4 149 195.9 149C195.3 149 195 148.1 195.3 147C195.6 145.7 195.4 145.2 194.7 145.7C194.1 146.1 193.9 145.5 194.2 144.2C194.6 143 194.5 142.2 194.1 142.4C193.7 142.7 192.6 140.5 191.7 137.7C189.2 129.8 189 129.2 189.6 133ZM288.9 235.2C289.7 234.9 290 235.2 289.6 235.9C289.2 236.5 289.4 237 290 237C290.6 237 290.8 237.4 290.5 238C290.1 238.6 290.6 238.7 291.6 238.3C292.7 237.9 293.1 238.1 292.7 238.7C292.3 239.3 292.8 239.7 293.8 239.6C295 239.5 295.5 240.2 295.5 242.2C295.4 243.6 295.9 244.6 296.4 244.3C296.9 244 297.1 244.8 296.8 246.3C296.5 247.9 296.7 248.7 297.3 248.3C297.9 247.9 298.1 248.7 297.8 250.4C297.5 251.8 297.7 253 298.3 253C298.8 253 299 253.9 298.7 255C298.4 256.1 298.6 257 299.2 257C299.8 257 300 257.9 299.7 259C299.4 260.1 299.6 261 300.2 261C300.7 261 300.8 261.9 300.5 263C300.2 264.1 300.3 265 300.9 265C301.4 265 301.8 265.9 301.7 267C301.6 268.1 301.4 269 301.2 269C300.1 269 295.2 264.1 295.7 263.6C296.1 263.3 295.8 263 295.1 263C294.4 263 294.2 262.5 294.5 262C294.8 261.4 294.6 261 294 261C293.4 261 293.2 260.5 293.5 260C293.8 259.4 293.6 259 293 259C292.4 259 292.2 258.5 292.5 258C292.8 257.4 292.6 257 292 257C291.4 257 291.2 256.5 291.5 256C291.8 255.4 291.6 255 291 255C290.4 255 290.2 254.5 290.5 254C290.8 253.4 290.6 253 290 253C289.4 253 289.2 252.5 289.5 252C289.8 251.4 289.6 251 289 251C288.4 251 288.2 250.5 288.5 250C288.8 249.4 288.6 249 288 249C287.4 249 287.2 248.5 287.5 248C287.8 247.4 287.6 247 287 247C286.4 247 286.2 246.5 286.5 246C286.8 245.4 286.6 245 286.1 245C284.5 245 279.5 234.7 280.9 234.2C281.5 234 281.7 233.3 281.3 232.7C281 232.1 282.2 232.5 284.1 233.7C286 234.8 288.1 235.5 288.9 235.2Z" fill="#40C196"/>
<path d="M308.3 225.7C309.2 225.9 310.8 225.9 311.8 225.7C312.7 225.4 311.9 225.2 310 225.2C308.1 225.2 307.3 225.4 308.3 225.7Z" fill="#40C196"/>
<path d="M240.8 262.3C239.1 264.5 238.7 265.7 239.5 265.7C240.3 265.7 240.8 265.2 240.7 264.6C240.6 264.1 241.3 263.4 242.3 263.2C244 262.9 244 263.1 242.9 265.2C241.7 267.4 241.8 267.4 243.7 265.8C245.6 264.1 246.2 264.2 258.1 268.4C265 270.9 275.1 274 280.6 275.5C289.8 278 292.9 279.6 298.9 284.9C300.2 286 301.7 286.7 302.1 286.4C302.6 286.1 303 286.3 303 286.9C303 287.7 306.2 289.3 308.2 289.5C308.5 289.5 309.2 289.8 309.5 290.2C310.3 291 315.2 288.7 318.9 285.9C320.2 284.9 321.6 284.2 322 284.5C322.5 284.8 324.3 283.2 326.1 280.9C328.1 278.3 329.9 277 330.9 277.3C332.1 277.6 332.6 277 332.8 275.6C332.9 274 332.7 273.9 332 275C331.3 276.1 330.6 276.2 328.6 275.2C327.2 274.6 326.1 274.4 326.3 274.8C326.6 275.9 319.4 282.1 318.6 281.3C318.3 281 318 281.2 318 281.9C318 282.6 317.6 282.8 317 282.5C316.5 282.2 316 282.4 316 283C316 283.6 315.6 283.8 315 283.5C314.5 283.2 314 283.4 314 284C314 284.6 313.6 284.9 313.1 284.6C312.6 284.2 312 284.4 311.8 285C311.3 286.5 303 282.3 297.8 278C294.1 274.8 291.1 273.5 282.3 271.1C268.6 267.3 261.3 264.9 252.6 261.6C248.9 260.2 245.3 259 244.6 259C244 259 242.3 260.5 240.8 262.3Z" fill="#40C196"/>
<path d="M317.3 262.9C316.9 264.6 316.5 264.8 315.8 263.8C315.3 263 315.2 263.6 315.6 265.4C316.1 267.6 316 268.1 315 267.5C314.1 267 314 267.3 314.5 268.9C314.8 270 314.7 271 314.2 271C313.6 271 313.4 271.9 313.7 273C314 274.1 313.8 275 313.3 275C312.8 275 312.4 275.8 312.4 276.9C312.4 278.9 314.3 278.7 317.1 276.3C318 275.6 318.9 275.2 319.2 275.5C319.5 275.8 320.3 275.2 321.1 274.3C322.4 272.6 322.3 272.6 320.5 273.9C319.4 274.6 320.1 273.8 322 272.1C325.1 269.3 325.3 268.8 323.9 267.4C322.5 266 322.2 266.1 320.9 267.7C319.6 269.4 319.6 269.4 321.5 268C323.4 266.6 323.4 266.6 322.1 268.3C321.2 269.5 320.4 269.7 319.5 269C318.9 268.5 318.1 268.3 317.7 268.6C317.4 268.9 317.6 267.4 318 265.4C319 261.3 318.3 259.1 317.3 262.9Z" fill="#40C196"/>
<path d="M371.4 318.5C371 319.3 370.3 319.7 369.7 319.3C369.1 319 369 319.2 369.4 319.8C369.7 320.4 369.2 321.3 368.3 321.9C367.3 322.4 366.7 323 367 323.2C367.2 323.4 366.8 324.5 365.9 325.7C365 327 364 327.8 363.7 327.5C363.3 327.2 363.2 327.3 363.5 327.7C364.1 328.5 358.1 335 356.8 335C355.6 335 349.8 339.1 348.3 341C347.6 341.8 347 343.6 347 345C347 347.8 343.6 364.6 342.5 367.1C342.1 368.2 342.5 368.9 343.8 369.2C345.4 369.7 346 368.8 347.3 364.6C348.1 361.8 349.1 358.3 349.4 356.9C349.7 355.3 351.7 353.2 354.7 351.3C358.7 348.7 379.3 329.5 375.7 331.7C375.1 332.1 375.6 331 376.8 329.3C378 327.6 378.6 325.9 378.2 325.5C377.8 325 378.2 324.9 379.1 325.2C380.3 325.7 380.6 325.3 380.2 323.3L379.7 320.8L377.8 323.9C375.9 326.8 374.1 328.4 375.6 325.7C376 325 375.9 324.8 375.4 325.3C374.9 325.8 374.5 326.6 374.5 327C374.5 327.5 373.6 328.6 372.5 329.5C371.4 330.4 371.2 330.8 372 330.4C372.8 330 371 332.3 368 335.4C365 338.5 362.2 341 361.8 341C361.4 341 358.9 342.6 356.3 344.6C351.5 348.3 351.5 348.3 351.1 345.9C350.9 344.4 351.5 343.2 352.6 342.5C353.5 342 355.2 340.7 356.2 339.7C357.2 338.8 358.4 338 358.8 338C359.2 338 361.4 336.1 363.5 333.9C365.7 331.6 366.8 330 366 330.4C365.2 330.8 365.8 330 367.3 328.6C368.8 327.2 369.7 326 369.3 326C368.9 326 369.6 325 371 323.9C372.4 322.8 372.9 322.1 372.3 322.5C371.4 322.9 371.2 322.6 371.6 321.6C371.9 320.7 372.5 320.2 372.9 320.4C373.3 320.7 373.7 320 373.7 318.9C373.9 316.7 372.2 316.3 371.4 318.5Z" fill="#40C196"/>
<path d="M384 332.6C384 333.4 383.6 333.9 383.1 333.6C382.6 333.2 382.4 334 382.8 335.2C383.1 336.6 382.9 337.1 382.2 336.6C381.4 336.2 381.2 336.4 381.6 337.4C381.9 338.2 381.2 339.8 380.1 340.9C378.9 342.1 378.1 343.2 378.3 343.5C378.4 343.7 377.7 344.8 376.8 346C375.8 347.1 375.4 348 375.8 348C376.2 348 375.7 348.5 374.7 349.1C373.8 349.7 373.2 350.5 373.5 351.1C373.9 351.6 373.7 352 373.3 352C372.8 352 370.4 354.8 368 358.2C365.6 361.7 361.4 366.8 358.8 369.6C356.2 372.4 354.3 375 354.7 375.4C355.1 375.8 354.7 375.8 353.9 375.5C353 375.2 351.7 375.7 351 376.7C349.9 378.1 349.9 378.2 350.9 377.3C351.6 376.7 352.9 376.4 353.7 376.7C354.8 377.2 354.8 377.6 353.3 379.3C349.8 383.3 359.5 375.2 364.5 369.9C370 364.1 376 355.8 376 354.1C376 353.5 376.5 353 377 353C377.6 353 378 352.3 378 351.5C378 350.7 378.5 350 379.1 350C379.6 350 379.8 349.5 379.5 349C379.2 348.4 379.6 347.7 380.4 347.4C381.3 347.1 381.7 346.4 381.4 345.9C381.1 345.4 381.4 345 382 345C382.6 345 382.8 344.5 382.5 344C382.2 343.4 382.4 343 382.9 343C383.5 343 383.9 342.7 383.9 342.2C383.5 340.1 384.1 337.9 384.9 338.4C385.3 338.7 385.5 337.8 385.2 336.3C384.9 334.6 385.1 333.9 385.8 334.4C386.4 334.8 386.6 334.2 386.3 333C385.7 330.6 384 330.3 384 332.6Z" fill="#40C196"/>
<path d="M222.3 239.5C222.3 242.2 222.5 243.3 222.7 241.7C222.9 240.2 222.9 238 222.7 236.7C222.5 235.5 222.3 236.7 222.3 239.5Z" fill="#40EC96"/>
<path d="M224.2 247.7C223.1 250.5 223.5 275.3 224.9 287.5C227.7 312.1 233.7 337.1 239 346C253.2 370.1 268.1 384.2 281.7 386.5C285.2 387 286.1 386.9 286.6 385.6C287 384.7 286.6 383.2 285.7 382.2C281.1 376.9 275.2 359.4 273.5 345.7C272.8 340.3 272.5 339.8 269.1 338C267 337 262.6 333.2 259.2 329.6C246.3 315.8 234.8 290.3 237 280.5C237.4 278.6 237.6 277 237.4 277C237.1 277 237.6 276 238.5 274.7C239.3 273.4 239.7 272 239.3 271.7C239 271.3 239.2 271 239.9 271C240.6 271 240.9 270.6 240.5 270.1C240.2 269.5 240.8 268.7 241.7 268.1C242.7 267.5 243.1 267 242.7 267C242.3 267 242.4 266.1 243 265C243.9 263.4 243.8 263 242.5 263C241.5 263 241.2 262.5 241.6 261.8C242 261.2 241.9 261 241.2 261.4C240.6 261.7 240.3 262.9 240.5 264C240.7 265.1 240.6 265.9 240.2 265.9C238.2 265.6 237 266.1 237.5 267C237.8 267.5 237.7 268 237.2 268C235.5 268 232 277.8 232 282.5C232 288.2 235.7 299.4 241.1 310.3C247.8 323.7 256.1 334.1 264.7 340.1C268.5 342.8 270.9 346.4 269.7 347.7C267.8 349.5 249.8 332.5 243.8 323.3C239.6 316.9 238.4 315.9 237.4 318.4C235.5 323.4 252.3 342.7 266.2 351.4C270.2 354 270.7 354.8 272.8 362.3C274.1 366.8 276.2 372.9 277.6 375.9C278.9 378.9 279.8 381.5 279.6 381.7C279.4 382 277.2 381.1 274.8 379.9C265.8 375.3 251.3 358.7 241.8 342C236.1 331.9 230.6 304.6 228 273.5C227.5 266.9 226.8 259.7 226.4 257.5C226.1 255.3 225.8 251.8 225.7 249.8C225.5 245.5 225.3 245.2 224.2 247.7Z" fill="#40EC96"/>
<path d="M341.2 369.7C341.5 370.7 337.2 378.9 334.9 381.9C332.4 385.1 334 387.1 338.3 386.4C343.8 385.4 348 383.9 348 382.9C348 382.3 348.5 382.2 349 382.5C349.6 382.8 350 382.6 350 381.9C350 381.2 350.3 381 350.7 381.3C351 381.7 352 381.1 352.7 380C353.5 378.9 354.7 378.2 355.3 378.6C356 378.9 355.6 378.4 354.6 377.6C353.3 376.5 352.3 376.4 351.5 377C350.8 377.5 350 377.7 349.7 377.3C349.3 377 349 377.1 349 377.6C349 378.7 342.1 381.5 341.4 380.7C341.1 380.5 341.5 379 342.1 377.4C342.8 375.8 343.3 374.2 343.2 373.7C343.1 373.3 343.4 373 343.8 373C344.2 373 344.6 372.1 344.7 371C344.8 369.6 344.3 369 342.9 369C341.9 369 341.1 369.3 341.2 369.7Z" fill="#40EC96"/>
</svg>
